<svg xmlns="http://www.w3.org/2000/svg" xmlns:xlink="http://www.w3.org/1999/xlink" width="1080" zoomAndPan="magnify" viewBox="0 0 810 809.999993" height="1080" preserveAspectRatio="xMidYMid meet" version="1.0"><path fill="#f2efeb" d="M 792.621094 729.953125 L 580.003906 517.335938 C 669.042969 397.773438 659.675781 227.558594 551.207031 119.09375 C 432.070312 -0.0429688 238.226562 -0.0429688 119.09375 119.09375 C -0.0429688 238.226562 -0.0429688 432.070312 119.09375 551.207031 C 227.558594 659.675781 397.773438 669.042969 517.335938 580.003906 L 729.953125 792.621094 C 747.261719 809.929688 775.3125 809.929688 792.621094 792.621094 C 809.929688 775.3125 809.929688 747.261719 792.621094 729.953125 Z M 160.871094 509.429688 C 64.777344 413.335938 64.777344 256.96875 160.871094 160.871094 C 256.96875 64.777344 413.332031 64.777344 509.429688 160.871094 C 605.523438 256.96875 605.523438 413.332031 509.429688 509.429688 C 413.332031 605.523438 256.96875 605.523438 160.871094 509.429688 Z M 160.871094 509.429688 " fill-opacity="1" fill-rule="nonzero"/><path fill="#f2efeb" d="M 145.210938 355.789062 C 135.210938 355.789062 127.105469 347.683594 127.105469 337.6875 C 127.105469 224.316406 219.339844 132.082031 332.710938 132.082031 C 342.707031 132.082031 350.8125 140.1875 350.8125 150.1875 C 350.8125 160.183594 342.707031 168.289062 332.710938 168.289062 C 239.304688 168.289062 163.3125 244.28125 163.3125 337.6875 C 163.3125 347.683594 155.210938 355.789062 145.210938 355.789062 Z M 145.210938 355.789062 " fill-opacity="1" fill-rule="nonzero"/></svg>