<svg xmlns="http://www.w3.org/2000/svg" xmlns:xlink="http://www.w3.org/1999/xlink" width="1080" zoomAndPan="magnify" viewBox="0 0 810 809.999993" height="1080" preserveAspectRatio="xMidYMid meet" version="1.0"><path fill="#f2efeb" d="M 680.363281 589.089844 L 299.21875 589.089844 C 298.132812 589.128906 297.046875 589.109375 295.960938 589.035156 C 294.875 588.964844 293.796875 588.839844 292.726562 588.65625 C 291.652344 588.476562 290.59375 588.242188 289.542969 587.957031 C 288.496094 587.667969 287.460938 587.328125 286.449219 586.9375 C 285.433594 586.546875 284.4375 586.109375 283.46875 585.617188 C 282.496094 585.125 281.554688 584.589844 280.636719 584.003906 C 279.71875 583.417969 278.835938 582.789062 277.980469 582.117188 C 277.128906 581.441406 276.308594 580.726562 275.527344 579.96875 C 274.746094 579.214844 274.003906 578.421875 273.300781 577.589844 C 272.601562 576.761719 271.941406 575.898438 271.324219 575 C 270.710938 574.105469 270.140625 573.179688 269.617188 572.226562 C 269.09375 571.269531 268.621094 570.292969 268.195312 569.292969 C 267.773438 568.289062 267.398438 567.269531 267.078125 566.230469 C 266.753906 565.191406 266.484375 564.140625 266.269531 563.074219 C 266.050781 562.007812 265.890625 560.933594 265.78125 559.851562 C 265.671875 558.769531 265.617188 557.6875 265.617188 556.597656 C 265.617188 555.511719 265.671875 554.425781 265.78125 553.34375 C 265.890625 552.261719 266.050781 551.1875 266.269531 550.121094 C 266.484375 549.054688 266.753906 548.003906 267.078125 546.964844 C 267.398438 545.925781 267.773438 544.90625 268.195312 543.90625 C 268.621094 542.902344 269.09375 541.925781 269.617188 540.972656 C 270.140625 540.019531 270.710938 539.09375 271.324219 538.199219 C 271.941406 537.300781 272.601562 536.4375 273.300781 535.605469 C 274.003906 534.777344 274.746094 533.984375 275.527344 533.226562 C 276.308594 532.472656 277.128906 531.757812 277.980469 531.082031 C 278.835938 530.410156 279.71875 529.777344 280.636719 529.195312 C 281.554688 528.609375 282.496094 528.070312 283.46875 527.582031 C 284.4375 527.089844 285.433594 526.648438 286.449219 526.257812 C 287.460938 525.867188 288.496094 525.527344 289.542969 525.242188 C 290.59375 524.953125 291.652344 524.722656 292.726562 524.539062 C 293.796875 524.359375 294.875 524.234375 295.960938 524.160156 C 297.046875 524.089844 298.132812 524.070312 299.21875 524.105469 L 680.363281 524.105469 C 681.398438 524.109375 682.4375 524.066406 683.472656 523.976562 C 684.507812 523.890625 685.535156 523.761719 686.558594 523.585938 C 687.582031 523.414062 688.597656 523.195312 689.601562 522.9375 C 690.609375 522.675781 691.601562 522.375 692.582031 522.03125 C 693.558594 521.6875 694.523438 521.304688 695.472656 520.878906 C 696.417969 520.453125 697.347656 519.988281 698.253906 519.484375 C 699.160156 518.980469 700.046875 518.4375 700.910156 517.859375 C 701.769531 517.28125 702.605469 516.667969 703.417969 516.019531 C 704.226562 515.371094 705.007812 514.6875 705.761719 513.972656 C 706.515625 513.257812 707.234375 512.511719 707.925781 511.734375 C 708.613281 510.957031 709.269531 510.152344 709.890625 509.320312 C 710.511719 508.488281 711.097656 507.632812 711.644531 506.75 C 712.195312 505.871094 712.707031 504.964844 713.179688 504.042969 C 713.652344 503.117188 714.082031 502.175781 714.476562 501.214844 C 714.867188 500.253906 715.21875 499.277344 715.53125 498.285156 C 715.839844 497.292969 716.109375 496.292969 716.332031 495.277344 L 785.660156 183.390625 C 785.808594 182.722656 785.941406 182.046875 786.050781 181.371094 C 786.160156 180.691406 786.253906 180.011719 786.324219 179.332031 C 786.398438 178.648438 786.449219 177.964844 786.484375 177.277344 C 786.519531 176.59375 786.535156 175.90625 786.53125 175.21875 C 786.527344 174.535156 786.503906 173.847656 786.460938 173.164062 C 786.417969 172.476562 786.355469 171.796875 786.277344 171.113281 C 786.195312 170.433594 786.097656 169.753906 785.976562 169.078125 C 785.859375 168.402344 785.722656 167.730469 785.566406 167.0625 C 785.410156 166.390625 785.234375 165.730469 785.039062 165.070312 C 784.847656 164.410156 784.636719 163.757812 784.40625 163.113281 C 784.175781 162.464844 783.929688 161.824219 783.664062 161.191406 C 783.398438 160.558594 783.113281 159.933594 782.8125 159.316406 C 782.511719 158.699219 782.195312 158.09375 781.863281 157.492188 C 781.527344 156.894531 781.175781 156.304688 780.808594 155.726562 C 780.441406 155.144531 780.058594 154.578125 779.660156 154.019531 C 779.257812 153.460938 778.84375 152.914062 778.414062 152.378906 C 777.984375 151.84375 777.539062 151.320312 777.082031 150.808594 C 776.621094 150.300781 776.148438 149.804688 775.660156 149.320312 C 775.175781 148.835938 774.675781 148.367188 774.160156 147.910156 C 773.648438 147.453125 773.125 147.011719 772.585938 146.585938 C 772.046875 146.160156 771.5 145.75 770.9375 145.355469 C 770.375 144.957031 769.804688 144.578125 769.222656 144.214844 C 768.640625 143.851562 768.050781 143.503906 767.449219 143.171875 C 766.847656 142.84375 766.234375 142.527344 765.617188 142.234375 C 764.996094 141.9375 764.371094 141.65625 763.738281 141.394531 C 763.101562 141.132812 762.460938 140.890625 761.8125 140.664062 C 761.164062 140.441406 760.511719 140.234375 759.851562 140.042969 C 759.191406 139.855469 758.527344 139.683594 757.855469 139.53125 C 757.1875 139.378906 756.515625 139.246094 755.835938 139.132812 C 755.160156 139.019531 754.480469 138.925781 753.800781 138.847656 C 753.117188 138.773438 752.433594 138.714844 751.746094 138.675781 C 751.0625 138.640625 750.375 138.621094 749.691406 138.621094 L 229.890625 138.621094 C 227.25 138.609375 224.632812 138.878906 222.050781 139.429688 L 196.496094 28.535156 C 196.265625 27.527344 195.992188 26.535156 195.675781 25.550781 C 195.359375 24.570312 195.003906 23.601562 194.605469 22.648438 C 194.210938 21.699219 193.773438 20.761719 193.296875 19.847656 C 192.820312 18.933594 192.308594 18.039062 191.757812 17.164062 C 191.207031 16.292969 190.621094 15.445312 190 14.621094 C 189.375 13.796875 188.71875 13.003906 188.03125 12.234375 C 187.34375 11.464844 186.621094 10.726562 185.871094 10.019531 C 185.121094 9.3125 184.339844 8.636719 183.535156 7.996094 C 182.726562 7.355469 181.890625 6.746094 181.035156 6.175781 C 180.175781 5.601562 179.292969 5.066406 178.390625 4.570312 C 177.484375 4.070312 176.5625 3.613281 175.621094 3.191406 C 174.675781 2.773438 173.71875 2.390625 172.746094 2.050781 C 171.769531 1.710938 170.785156 1.414062 169.785156 1.15625 C 168.785156 0.902344 167.777344 0.6875 166.757812 0.515625 C 165.742188 0.34375 164.71875 0.214844 163.691406 0.128906 C 162.660156 0.0429688 161.632812 0 160.601562 0 L 56.625 0 C 55.417969 0 54.214844 0.0585938 53.015625 0.175781 C 51.816406 0.296875 50.625 0.472656 49.441406 0.707031 C 48.257812 0.941406 47.089844 1.234375 45.9375 1.585938 C 44.785156 1.933594 43.648438 2.339844 42.535156 2.800781 C 41.421875 3.265625 40.332031 3.777344 39.269531 4.347656 C 38.207031 4.914062 37.171875 5.535156 36.171875 6.203125 C 35.167969 6.875 34.199219 7.59375 33.269531 8.355469 C 32.335938 9.121094 31.445312 9.929688 30.589844 10.785156 C 29.738281 11.636719 28.929688 12.527344 28.164062 13.460938 C 27.398438 14.394531 26.683594 15.359375 26.011719 16.363281 C 25.34375 17.367188 24.722656 18.398438 24.15625 19.460938 C 23.585938 20.527344 23.070312 21.613281 22.609375 22.726562 C 22.148438 23.84375 21.742188 24.976562 21.390625 26.128906 C 21.042969 27.285156 20.75 28.453125 20.515625 29.636719 C 20.277344 30.816406 20.101562 32.007812 19.984375 33.210938 C 19.867188 34.410156 19.808594 35.613281 19.808594 36.816406 C 19.808594 38.023438 19.867188 39.226562 19.984375 40.425781 C 20.101562 41.628906 20.277344 42.820312 20.515625 44 C 20.75 45.183594 21.042969 46.351562 21.390625 47.507812 C 21.742188 48.660156 22.148438 49.792969 22.609375 50.90625 C 23.070312 52.023438 23.585938 53.109375 24.15625 54.175781 C 24.722656 55.238281 25.34375 56.269531 26.011719 57.273438 C 26.683594 58.277344 27.398438 59.242188 28.164062 60.175781 C 28.929688 61.109375 29.738281 62 30.589844 62.851562 C 31.445312 63.707031 32.335938 64.515625 33.269531 65.277344 C 34.199219 66.042969 35.167969 66.761719 36.171875 67.429688 C 37.171875 68.101562 38.207031 68.71875 39.269531 69.289062 C 40.332031 69.855469 41.421875 70.371094 42.535156 70.832031 C 43.648438 71.296875 44.785156 71.699219 45.9375 72.050781 C 47.089844 72.402344 48.257812 72.695312 49.441406 72.929688 C 50.625 73.164062 51.816406 73.339844 53.015625 73.460938 C 54.214844 73.578125 55.417969 73.636719 56.625 73.636719 L 131.292969 73.636719 L 225.253906 480.734375 C 223.371094 482.558594 221.5625 484.453125 219.824219 486.410156 C 218.082031 488.371094 216.417969 490.390625 214.828125 492.472656 C 213.238281 494.554688 211.730469 496.695312 210.300781 498.890625 C 208.867188 501.085938 207.519531 503.328125 206.253906 505.625 C 204.992188 507.917969 203.8125 510.257812 202.722656 512.636719 C 201.632812 515.019531 200.628906 517.4375 199.71875 519.894531 C 198.808594 522.351562 197.988281 524.839844 197.261719 527.355469 C 196.535156 529.871094 195.898438 532.414062 195.363281 534.976562 C 194.824219 537.539062 194.378906 540.121094 194.03125 542.71875 C 193.683594 545.316406 193.433594 547.921875 193.28125 550.535156 C 193.125 553.152344 193.070312 555.769531 193.109375 558.390625 C 193.148438 561.007812 193.289062 563.625 193.519531 566.234375 C 193.753906 568.84375 194.085938 571.441406 194.511719 574.023438 C 194.9375 576.609375 195.460938 579.175781 196.078125 581.722656 C 196.695312 584.265625 197.40625 586.789062 198.210938 589.28125 C 199.015625 591.773438 199.910156 594.234375 200.894531 596.660156 C 201.882812 599.089844 202.957031 601.476562 204.121094 603.824219 C 205.285156 606.171875 206.53125 608.472656 207.867188 610.726562 C 209.203125 612.980469 210.617188 615.183594 212.113281 617.332031 C 213.613281 619.484375 215.1875 621.574219 216.839844 623.609375 C 218.492188 625.640625 220.21875 627.609375 222.019531 629.515625 C 223.816406 631.417969 225.683594 633.253906 227.617188 635.019531 C 229.554688 636.789062 231.550781 638.480469 233.609375 640.097656 C 235.671875 641.714844 237.789062 643.257812 239.964844 644.71875 C 242.136719 646.179688 244.363281 647.558594 246.640625 648.851562 C 248.917969 650.148438 251.238281 651.359375 253.605469 652.484375 C 255.972656 653.605469 258.378906 654.640625 260.820312 655.585938 C 263.265625 656.53125 265.738281 657.386719 268.246094 658.148438 C 270.753906 658.910156 273.285156 659.578125 275.839844 660.152344 C 278.398438 660.726562 280.972656 661.203125 283.5625 661.589844 C 286.15625 661.972656 288.757812 662.257812 291.371094 662.449219 C 293.984375 662.636719 296.601562 662.730469 299.21875 662.726562 L 680.363281 662.726562 C 681.566406 662.726562 682.769531 662.667969 683.972656 662.550781 C 685.171875 662.433594 686.363281 662.253906 687.542969 662.019531 C 688.726562 661.785156 689.894531 661.492188 691.050781 661.140625 C 692.203125 660.792969 693.335938 660.386719 694.453125 659.925781 C 695.566406 659.464844 696.65625 658.949219 697.71875 658.378906 C 698.78125 657.8125 699.8125 657.191406 700.816406 656.523438 C 701.820312 655.851562 702.785156 655.136719 703.71875 654.371094 C 704.652344 653.605469 705.542969 652.796875 706.394531 651.945312 C 707.25 651.089844 708.058594 650.199219 708.824219 649.265625 C 709.585938 648.335938 710.304688 647.367188 710.976562 646.363281 C 711.644531 645.363281 712.265625 644.328125 712.832031 643.265625 C 713.402344 642.203125 713.917969 641.113281 714.378906 640 C 714.839844 638.882812 715.246094 637.75 715.59375 636.597656 C 715.945312 635.441406 716.238281 634.273438 716.472656 633.09375 C 716.707031 631.910156 716.882812 630.71875 717.003906 629.519531 C 717.121094 628.316406 717.179688 627.113281 717.179688 625.910156 C 717.179688 624.703125 717.121094 623.5 717.003906 622.300781 C 716.882812 621.101562 716.707031 619.910156 716.472656 618.726562 C 716.238281 617.542969 715.945312 616.375 715.59375 615.222656 C 715.246094 614.066406 714.839844 612.933594 714.378906 611.820312 C 713.917969 610.707031 713.402344 609.617188 712.832031 608.554688 C 712.265625 607.488281 711.644531 606.457031 710.976562 605.453125 C 710.304688 604.453125 709.585938 603.484375 708.824219 602.550781 C 708.058594 601.621094 707.25 600.726562 706.394531 599.875 C 705.542969 599.023438 704.652344 598.214844 703.71875 597.449219 C 702.785156 596.683594 701.820312 595.964844 700.816406 595.296875 C 699.8125 594.625 698.78125 594.007812 697.71875 593.4375 C 696.65625 592.871094 695.566406 592.355469 694.453125 591.894531 C 693.335938 591.433594 692.203125 591.027344 691.050781 590.675781 C 689.894531 590.328125 688.726562 590.035156 687.542969 589.796875 C 686.363281 589.5625 685.171875 589.386719 683.972656 589.269531 C 682.769531 589.148438 681.566406 589.089844 680.363281 589.089844 Z M 680.363281 589.089844 " fill-opacity="1" fill-rule="nonzero"/><path fill="#f2efeb" d="M 403.15625 754.773438 C 403.15625 756.582031 403.070312 758.386719 402.890625 760.1875 C 402.714844 761.984375 402.449219 763.773438 402.097656 765.546875 C 401.742188 767.320312 401.304688 769.074219 400.78125 770.804688 C 400.253906 772.535156 399.644531 774.234375 398.953125 775.90625 C 398.261719 777.578125 397.488281 779.210938 396.636719 780.808594 C 395.785156 782.402344 394.855469 783.953125 393.851562 785.457031 C 392.84375 786.960938 391.769531 788.410156 390.621094 789.808594 C 389.472656 791.207031 388.261719 792.546875 386.980469 793.824219 C 385.703125 795.101562 384.363281 796.316406 382.964844 797.464844 C 381.566406 798.613281 380.117188 799.6875 378.613281 800.691406 C 377.109375 801.699219 375.558594 802.625 373.964844 803.480469 C 372.371094 804.332031 370.734375 805.105469 369.066406 805.796875 C 367.394531 806.488281 365.691406 807.097656 363.960938 807.621094 C 362.230469 808.148438 360.480469 808.585938 358.703125 808.9375 C 356.929688 809.292969 355.144531 809.554688 353.34375 809.734375 C 351.542969 809.910156 349.738281 810 347.929688 810 C 346.121094 810 344.316406 809.910156 342.515625 809.734375 C 340.71875 809.554688 338.929688 809.292969 337.15625 808.9375 C 335.382812 808.585938 333.628906 808.148438 331.898438 807.621094 C 330.167969 807.097656 328.46875 806.488281 326.796875 805.796875 C 325.125 805.105469 323.492188 804.332031 321.898438 803.480469 C 320.300781 802.625 318.75 801.699219 317.246094 800.691406 C 315.742188 799.6875 314.292969 798.613281 312.894531 797.464844 C 311.496094 796.316406 310.15625 795.101562 308.878906 793.824219 C 307.601562 792.546875 306.386719 791.207031 305.238281 789.808594 C 304.09375 788.410156 303.015625 786.960938 302.011719 785.457031 C 301.007812 783.953125 300.078125 782.402344 299.222656 780.804688 C 298.371094 779.210938 297.597656 777.578125 296.90625 775.90625 C 296.214844 774.234375 295.605469 772.535156 295.082031 770.804688 C 294.554688 769.074219 294.117188 767.320312 293.765625 765.546875 C 293.410156 763.773438 293.148438 761.984375 292.96875 760.1875 C 292.792969 758.386719 292.703125 756.582031 292.703125 754.773438 C 292.703125 752.964844 292.792969 751.160156 292.96875 749.359375 C 293.148438 747.558594 293.410156 745.773438 293.765625 744 C 294.117188 742.222656 294.554688 740.472656 295.082031 738.742188 C 295.605469 737.011719 296.214844 735.308594 296.90625 733.636719 C 297.597656 731.96875 298.371094 730.332031 299.222656 728.738281 C 300.078125 727.144531 301.007812 725.59375 302.011719 724.089844 C 303.015625 722.585938 304.09375 721.136719 305.238281 719.738281 C 306.386719 718.339844 307.601562 717 308.878906 715.722656 C 310.15625 714.441406 311.496094 713.230469 312.894531 712.082031 C 314.292969 710.933594 315.742188 709.859375 317.246094 708.851562 C 318.75 707.847656 320.300781 706.917969 321.898438 706.066406 C 323.492188 705.214844 325.125 704.441406 326.796875 703.75 C 328.46875 703.058594 330.167969 702.449219 331.898438 701.921875 C 333.628906 701.398438 335.382812 700.960938 337.15625 700.605469 C 338.929688 700.253906 340.71875 699.988281 342.515625 699.8125 C 344.316406 699.632812 346.121094 699.546875 347.929688 699.546875 C 349.738281 699.546875 351.542969 699.632812 353.34375 699.8125 C 355.144531 699.988281 356.929688 700.253906 358.703125 700.605469 C 360.480469 700.960938 362.230469 701.398438 363.960938 701.921875 C 365.691406 702.449219 367.394531 703.058594 369.066406 703.75 C 370.734375 704.441406 372.371094 705.214844 373.964844 706.066406 C 375.558594 706.917969 377.109375 707.847656 378.613281 708.851562 C 380.117188 709.859375 381.566406 710.933594 382.964844 712.082031 C 384.363281 713.230469 385.703125 714.441406 386.980469 715.722656 C 388.261719 717 389.472656 718.339844 390.621094 719.738281 C 391.769531 721.136719 392.84375 722.585938 393.851562 724.089844 C 394.855469 725.59375 395.785156 727.144531 396.636719 728.738281 C 397.488281 730.332031 398.261719 731.96875 398.953125 733.636719 C 399.644531 735.308594 400.253906 737.011719 400.78125 738.742188 C 401.304688 740.472656 401.742188 742.222656 402.097656 744 C 402.449219 745.773438 402.714844 747.558594 402.890625 749.359375 C 403.070312 751.160156 403.15625 752.964844 403.15625 754.773438 Z M 403.15625 754.773438 " fill-opacity="1" fill-rule="nonzero"/><path fill="#f2efeb" d="M 660.886719 754.773438 C 660.886719 756.582031 660.796875 758.386719 660.621094 760.1875 C 660.441406 761.984375 660.175781 763.773438 659.824219 765.546875 C 659.472656 767.320312 659.03125 769.074219 658.507812 770.804688 C 657.980469 772.535156 657.375 774.234375 656.679688 775.90625 C 655.988281 777.578125 655.214844 779.210938 654.363281 780.808594 C 653.511719 782.402344 652.582031 783.953125 651.578125 785.457031 C 650.574219 786.960938 649.496094 788.410156 648.347656 789.808594 C 647.203125 791.207031 645.988281 792.546875 644.710938 793.824219 C 643.429688 795.101562 642.09375 796.316406 640.695312 797.464844 C 639.296875 798.613281 637.84375 799.6875 636.339844 800.691406 C 634.835938 801.699219 633.285156 802.625 631.691406 803.480469 C 630.097656 804.332031 628.464844 805.105469 626.792969 805.796875 C 625.121094 806.488281 623.421875 807.097656 621.691406 807.621094 C 619.957031 808.148438 618.207031 808.585938 616.433594 808.9375 C 614.65625 809.292969 612.871094 809.554688 611.070312 809.734375 C 609.269531 809.910156 607.464844 810 605.65625 810 C 603.847656 810 602.042969 809.910156 600.246094 809.734375 C 598.445312 809.554688 596.65625 809.292969 594.882812 808.9375 C 593.109375 808.585938 591.355469 808.148438 589.625 807.621094 C 587.894531 807.097656 586.195312 806.488281 584.523438 805.796875 C 582.851562 805.105469 581.21875 804.332031 579.625 803.480469 C 578.027344 802.625 576.480469 801.699219 574.976562 800.691406 C 573.472656 799.6875 572.019531 798.613281 570.621094 797.464844 C 569.222656 796.316406 567.886719 795.101562 566.605469 793.824219 C 565.328125 792.546875 564.113281 791.207031 562.964844 789.808594 C 561.820312 788.410156 560.742188 786.960938 559.738281 785.457031 C 558.734375 783.953125 557.804688 782.402344 556.953125 780.804688 C 556.097656 779.210938 555.328125 777.578125 554.632812 775.90625 C 553.941406 774.234375 553.332031 772.535156 552.808594 770.804688 C 552.285156 769.074219 551.84375 767.320312 551.492188 765.546875 C 551.140625 763.773438 550.875 761.984375 550.695312 760.1875 C 550.519531 758.386719 550.429688 756.582031 550.429688 754.773438 C 550.429688 752.964844 550.519531 751.160156 550.695312 749.359375 C 550.875 747.558594 551.140625 745.773438 551.492188 744 C 551.84375 742.222656 552.285156 740.472656 552.808594 738.742188 C 553.332031 737.011719 553.941406 735.308594 554.632812 733.636719 C 555.328125 731.96875 556.097656 730.332031 556.953125 728.738281 C 557.804688 727.144531 558.734375 725.59375 559.738281 724.089844 C 560.742188 722.585938 561.820312 721.136719 562.964844 719.738281 C 564.113281 718.339844 565.328125 717 566.605469 715.722656 C 567.886719 714.441406 569.222656 713.230469 570.621094 712.082031 C 572.019531 710.933594 573.472656 709.859375 574.976562 708.851562 C 576.480469 707.847656 578.027344 706.917969 579.625 706.066406 C 581.21875 705.214844 582.851562 704.441406 584.523438 703.75 C 586.195312 703.058594 587.894531 702.449219 589.625 701.921875 C 591.355469 701.398438 593.109375 700.960938 594.882812 700.605469 C 596.65625 700.253906 598.445312 699.988281 600.246094 699.8125 C 602.042969 699.632812 603.847656 699.546875 605.65625 699.546875 C 607.464844 699.546875 609.269531 699.632812 611.070312 699.8125 C 612.871094 699.988281 614.65625 700.253906 616.433594 700.605469 C 618.207031 700.960938 619.957031 701.398438 621.691406 701.921875 C 623.421875 702.449219 625.121094 703.058594 626.792969 703.75 C 628.464844 704.441406 630.097656 705.214844 631.691406 706.066406 C 633.285156 706.917969 634.835938 707.847656 636.339844 708.851562 C 637.84375 709.859375 639.296875 710.933594 640.695312 712.082031 C 642.09375 713.230469 643.429688 714.441406 644.710938 715.722656 C 645.988281 717 647.203125 718.339844 648.347656 719.738281 C 649.496094 721.136719 650.574219 722.585938 651.578125 724.089844 C 652.582031 725.59375 653.511719 727.144531 654.363281 728.738281 C 655.214844 730.332031 655.988281 731.96875 656.679688 733.636719 C 657.375 735.308594 657.980469 737.011719 658.507812 738.742188 C 659.03125 740.472656 659.472656 742.222656 659.824219 744 C 660.175781 745.773438 660.441406 747.558594 660.621094 749.359375 C 660.796875 751.160156 660.886719 752.964844 660.886719 754.773438 Z M 660.886719 754.773438 " fill-opacity="1" fill-rule="nonzero"/></svg>